<?xml version="1.0" encoding="UTF-8" standalone="no"?>
<!-- Created with Inkscape (http://www.inkscape.org/) -->

<svg
   width="256"
   height="256"
   viewBox="0 0 256 256.00001"
   version="1.1"
   id="svg1"
   inkscape:version="1.3 (0e150ed6c4, 2023-07-21)"
   sodipodi:docname="org.v1993.NXDumpClient.svg"
   xmlns:inkscape="http://www.inkscape.org/namespaces/inkscape"
   xmlns:sodipodi="http://sodipodi.sourceforge.net/DTD/sodipodi-0.dtd"
   xmlns="http://www.w3.org/2000/svg"
   xmlns:svg="http://www.w3.org/2000/svg">
  <sodipodi:namedview
     id="namedview1"
     pagecolor="#ffffff"
     bordercolor="#000000"
     borderopacity="0.25"
     inkscape:showpageshadow="2"
     inkscape:pageopacity="0.0"
     inkscape:pagecheckerboard="0"
     inkscape:deskcolor="#d1d1d1"
     inkscape:document-units="mm"
     showgrid="true"
     inkscape:zoom="1.4142136"
     inkscape:cx="59.043416"
     inkscape:cy="154.14928"
     inkscape:window-width="1920"
     inkscape:window-height="1052"
     inkscape:window-x="0"
     inkscape:window-y="0"
     inkscape:window-maximized="1"
     inkscape:current-layer="layer1" />
  <defs
     id="defs1">
    <rect
       x="43.805522"
       y="27.144454"
       width="104.45935"
       height="114.56831"
       id="rect8" />
    <rect
       x="17.870302"
       y="4.6330412"
       width="237.87359"
       height="250.97847"
       id="rect3" />
    <rect
       x="25.746468"
       y="13.303451"
       width="220.00326"
       height="230.26214"
       id="rect2" />
    <rect
       x="17.870302"
       y="4.6330414"
       width="237.8736"
       height="250.97847"
       id="rect3-8" />
  </defs>
  <g
     inkscape:label="Background"
     inkscape:groupmode="layer"
     id="layer1"
     style="display:inline">
    <rect
       style="fill:#cecece;fill-opacity:1"
       id="rect1"
       width="262.09778"
       height="262.09784"
       x="-3.0488868"
       y="-3.0489173"
       inkscape:label="Bg1" />
    <rect
       style="fill:#9d010e;fill-opacity:1"
       id="rect6"
       width="410.90356"
       height="293.06375"
       x="-205.45178"
       y="34.487461"
       transform="rotate(-45)"
       rx="0"
       ry="0"
       inkscape:label="Bg2" />
    <rect
       style="fill:#2d2d37;fill-opacity:1"
       id="rect7"
       width="413.42542"
       height="178.55588"
       x="-206.71271"
       y="91.741402"
       transform="rotate(-45)"
       inkscape:label="Bg3" />
  </g>
  <g
     inkscape:groupmode="layer"
     id="layer2"
     inkscape:label="Text"
     style="display:inline">
    <path
       style="font-weight:900;font-size:73.6527px;font-family:'Noto Sans';-inkscape-font-specification:'Noto Sans, Heavy';text-align:center;text-anchor:middle;white-space:pre;fill:#848c8f;stroke:#ededed;stroke-width:3.00001;stroke-linejoin:bevel"
       d="m 187.93195,159.58276 q -9.00363,0 -14.16748,7.51894 -5.16384,7.51894 -5.16384,20.94562 0,13.56095 5.16384,20.67709 5.16385,6.98188 15.62395,6.98188 6.2231,0 12.04898,-1.74547 5.95828,-1.74547 11.91656,-4.29654 v 21.88549 q -6.2231,2.8196 -12.84341,4.02801 -6.48792,1.34267 -13.90267,1.34267 -15.35913,0 -25.1572,-6.17628 -9.79807,-6.17627 -14.4323,-17.18615 -4.63421,-11.14415 -4.63421,-25.64497 0,-14.50081 5.29625,-25.64496 5.29626,-11.14414 15.49153,-17.45468 10.32771,-6.44481 25.02482,-6.44481 6.88512,0 14.43228,1.6112 7.54715,1.6112 14.8295,5.10214 l -7.81197,20.40856 q -5.16384,-2.55107 -10.4601,-4.16228 -5.29625,-1.74546 -11.25453,-1.74546 z"
       id="path2"
       inkscape:label="C" />
    <path
       style="font-weight:900;font-size:73.6527px;font-family:'Noto Sans';-inkscape-font-specification:'Noto Sans, Heavy';text-align:center;text-anchor:middle;white-space:pre;fill:#848c8f;stroke:#ededed;stroke-width:3.00001;stroke-linejoin:bevel"
       d="m 118.87882,185.63052 q 0,16.64908 -6.2231,27.79323 -6.09069,11.14415 -17.21283,16.64909 -11.122119,5.50494 -26.216444,5.50494 H 38.640578 v -95.86651 h 32.704363 q 22.9063,0 35.220089,11.81548 12.31379,11.81548 12.31379,34.10377 z m -26.481271,0.93987 q 0,-25.9135 -20.787787,-25.9135 h -7.41477 v 53.70673 h 5.693479 q 11.651761,0 17.080419,-6.84761 5.428659,-6.84761 5.428659,-20.94562 z"
       id="text3-8"
       inkscape:label="D" />
    <path
       style="font-weight:900;font-size:73.6527px;font-family:'Noto Sans';-inkscape-font-specification:'Noto Sans, Heavy';text-align:center;text-anchor:middle;white-space:pre;display:inline;fill:#e5010e;stroke:#ededed;stroke-width:3.00001;stroke-linejoin:bevel"
       d="M 225.91505,118.04926 H 196.38844 L 177.98395,88.107755 159.71189,118.04926 H 130.8473 L 162.2276,69.041866 132.701,22.182745 h 28.33495 l 17.08041,29.672967 16.41839,-29.672967 h 29.12939 l -29.92383,48.873124 z"
       id="path3"
       inkscape:label="X" />
    <path
       style="font-weight:900;font-size:73.6527px;font-family:'Noto Sans';-inkscape-font-specification:'Noto Sans, Heavy';text-align:center;text-anchor:middle;white-space:pre;display:inline;fill:#e5010e;stroke:#ededed;stroke-width:3.00001;stroke-linejoin:bevel"
       d="M 120.38725,118.04926 H 86.888451 L 52.330397,50.513044 h -0.529626 q 0.264814,3.088137 0.529626,7.518943 0.264814,4.296538 0.397219,8.727342 0.264813,4.430805 0.264813,8.056009 V 118.04926 H 30.350947 V 22.182745 H 63.717348 L 98.14299,88.779088 h 0.397222 Q 98.407721,85.690951 98.14299,81.528681 97.878169,77.366409 97.745767,73.06987 97.613456,68.773333 97.613456,65.550929 V 22.182745 h 22.773884 z"
       id="text3"
       inkscape:label="N" />
  </g>
</svg>
